<svg width="53" height="42" viewBox="0 0 53 42" fill="none" xmlns="http://www.w3.org/2000/svg">
<path id="Vector" d="M53 9.62501C53 8.00056 52.3485 6.44264 51.1889 5.29398C50.0293 4.14532 48.4566 3.50001 46.8167 3.50001H22.5371C22.0143 3.50167 21.5028 3.34939 21.0675 3.06251L17.9979 1.02923C16.9815 0.355933 15.7856 -0.00235873 14.5629 1.16861e-05H6.18333C4.54341 1.16861e-05 2.97066 0.645322 1.81106 1.79398C0.651456 2.94264 0 4.50056 0 6.12501V11.375C0 11.6071 0.0930652 11.8296 0.258722 11.9937C0.424379 12.1578 0.649059 12.25 0.883333 12.25H52.1167C52.3509 12.25 52.5756 12.1578 52.7413 11.9937C52.9069 11.8296 53 11.6071 53 11.375V9.62501ZM0 35.875C0 37.4995 0.651456 39.0574 1.81106 40.206C2.97066 41.3547 4.54341 42 6.18333 42H46.8167C48.4566 42 50.0293 41.3547 51.1889 40.206C52.3485 39.0574 53 37.4995 53 35.875V16.625C53 16.3929 52.9069 16.1704 52.7413 16.0063C52.5756 15.8422 52.3509 15.75 52.1167 15.75H0.883333C0.649059 15.75 0.424379 15.8422 0.258722 16.0063C0.0930652 16.1704 0 16.3929 0 16.625V35.875Z" fill="white"/>
</svg>
