<svg width="154" height="49" viewBox="0 0 154 49" fill="none" xmlns="http://www.w3.org/2000/svg">
<path d="M148.787 48.7912H4.79958C2.15981 48.7912 0 46.6314 0 43.9916V5.59499C0 2.95522 2.15981 0.79541 4.79958 0.79541H148.787C151.427 0.79541 153.587 2.95522 153.587 5.59499V43.9916C153.587 46.6314 151.427 48.7912 148.787 48.7912Z" fill="black"/>
<path d="M32.3973 24.5534C32.3973 20.8337 35.517 19.0339 35.637 18.9139C33.8372 16.3941 31.1974 16.0341 30.2375 15.9141C27.9577 15.6742 25.6779 17.234 24.598 17.234C23.3981 17.234 21.5982 15.9141 19.6784 15.9141C17.1586 15.9141 14.8788 17.354 13.5589 19.6338C10.9191 24.1934 12.839 30.9128 15.3588 34.6325C16.6786 36.4323 18.1185 38.4722 20.0384 38.3522C21.9582 38.2322 22.6781 37.1523 24.9579 37.1523C27.2377 37.1523 27.8377 38.3522 29.8775 38.3522C31.9173 38.3522 33.2372 36.5523 34.4371 34.7525C35.877 32.7127 36.4769 30.6728 36.4769 30.5529C36.3569 30.4329 32.3973 28.993 32.3973 24.5534Z" fill="white"/>
<path d="M28.6774 13.5143C29.6374 12.1944 30.3573 10.5146 30.2373 8.71472C28.7974 8.83471 26.8776 9.67464 25.9177 10.9945C24.9578 12.0744 24.1178 13.8743 24.3578 15.5541C25.9177 15.6741 27.5975 14.7142 28.6774 13.5143Z" fill="white"/>
<path d="M59.7548 38.1122H57.115L55.6751 33.5526H50.6356L49.3157 38.1122H46.7959L51.8355 22.6335H54.9552L59.7548 38.1122ZM55.1952 31.6328L53.8753 27.5531C53.7553 27.1931 53.5153 26.1132 53.0354 24.6734C52.9154 25.2733 52.6754 26.3532 52.3154 27.5531L50.9955 31.6328H55.1952Z" fill="white"/>
<path d="M72.5935 32.4726C72.5935 34.3925 72.1135 35.8323 71.0336 37.0322C70.0737 37.9922 68.9938 38.4721 67.5539 38.4721C66.1141 38.4721 65.0342 37.9922 64.4342 36.9122V42.7917H61.9144V30.7928C61.9144 29.5929 61.9144 28.393 61.7944 27.0731H63.9542L64.0742 28.873C64.9142 27.5531 66.1141 26.8331 67.7939 26.8331C69.1138 26.8331 70.1937 27.3131 71.0336 28.393C72.1135 29.3529 72.5935 30.6728 72.5935 32.4726ZM70.0737 32.4726C70.0737 31.3927 69.8337 30.4328 69.3538 29.8329C68.8738 29.1129 68.1539 28.753 67.194 28.753C66.594 28.753 65.9941 28.9929 65.5141 29.3529C65.0342 29.7129 64.6742 30.3128 64.5542 30.9128C64.4342 31.2727 64.4342 31.5127 64.4342 31.6327V33.5525C64.4342 34.3925 64.6742 34.9924 65.1541 35.5924C65.6341 36.1923 66.354 36.4323 67.074 36.4323C68.0339 36.4323 68.7538 36.0723 69.2338 35.3524C69.8337 34.6324 70.0737 33.6725 70.0737 32.4726Z" fill="white"/>
<path d="M85.4324 32.4726C85.4324 34.3925 84.9524 35.8323 83.8725 37.0322C82.9126 37.9922 81.8327 38.4721 80.3928 38.4721C78.9529 38.4721 77.873 37.9922 77.2731 36.9122V42.7917H74.7533V30.7928C74.7533 29.5929 74.7533 28.393 74.6333 27.0731H76.7931L76.9131 28.873C77.753 27.5531 78.9529 26.8331 80.6328 26.8331C81.9527 26.8331 83.0326 27.3131 83.8725 28.393C84.9524 29.3529 85.4324 30.6728 85.4324 32.4726ZM82.9126 32.4726C82.9126 31.3927 82.6726 30.4328 82.1926 29.8329C81.7127 29.1129 80.9927 28.753 80.0328 28.753C79.4329 28.753 78.8329 28.9929 78.353 29.3529C77.873 29.7129 77.513 30.3128 77.3931 30.9128C77.2731 31.2727 77.2731 31.5127 77.2731 31.6327V33.5525C77.2731 34.3925 77.513 34.9924 77.993 35.5924C78.473 36.1923 79.1929 36.4323 79.9128 36.4323C80.8728 36.4323 81.5927 36.0723 82.0726 35.3524C82.6726 34.6324 82.9126 33.6725 82.9126 32.4726Z" fill="white"/>
<path d="M99.8312 33.7926C99.8312 35.1124 99.3513 36.1924 98.5113 37.0323C97.5514 37.9922 96.1116 38.3522 94.3117 38.3522C92.6319 38.3522 91.312 37.9922 90.3521 37.3923L90.952 35.3524C92.0319 35.9524 93.2318 36.3123 94.5517 36.3123C95.5116 36.3123 96.2315 36.0724 96.7115 35.7124C97.1915 35.2324 97.4314 34.7525 97.4314 34.0325C97.4314 33.4326 97.1915 32.8327 96.8315 32.4727C96.3515 31.9927 95.6316 31.6328 94.6717 31.2728C91.9119 30.3129 90.592 28.753 90.592 26.8332C90.592 25.5133 91.072 24.5534 92.0319 23.7134C92.9918 22.8735 94.1917 22.5135 95.8716 22.5135C97.3114 22.5135 98.3913 22.7535 99.3513 23.2335L98.7513 25.2733C97.9114 24.7934 96.9515 24.5534 95.7516 24.5534C94.9117 24.5534 94.1917 24.7934 93.7118 25.1533C93.3518 25.5133 93.1118 25.9932 93.1118 26.5932C93.1118 27.1931 93.3518 27.6731 93.8317 28.1531C94.1917 28.513 95.0316 28.873 96.1116 29.353C97.4314 29.8329 98.3914 30.5528 99.1113 31.2728C99.4713 31.8727 99.8312 32.7127 99.8312 33.7926Z" fill="white"/>
<path d="M107.991 28.873H105.231V34.2725C105.231 35.5924 105.711 36.3123 106.671 36.3123C107.151 36.3123 107.511 36.3123 107.751 36.1923L107.871 38.1121C107.391 38.3521 106.791 38.3521 105.951 38.3521C104.991 38.3521 104.151 38.1121 103.671 37.5122C103.071 36.9123 102.831 35.9523 102.831 34.5125V28.873H101.151V26.9531H102.831V24.9133L105.231 24.1934V26.9531H107.991V28.873Z" fill="white"/>
<path d="M120.35 32.4726C120.35 34.1525 119.87 35.5924 118.91 36.6723C117.83 37.7522 116.51 38.3521 114.83 38.3521C113.15 38.3521 111.83 37.7522 110.871 36.6723C109.911 35.5924 109.431 34.2725 109.431 32.5926C109.431 30.9128 109.911 29.4729 110.991 28.393C111.95 27.3131 113.39 26.7131 115.07 26.7131C116.75 26.7131 118.07 27.3131 119.03 28.393C119.87 29.4729 120.35 30.7928 120.35 32.4726ZM117.71 32.5926C117.71 31.5127 117.47 30.6728 116.99 29.9529C116.51 29.1129 115.67 28.633 114.71 28.633C113.75 28.633 112.91 29.1129 112.43 29.9529C111.95 30.6728 111.71 31.6327 111.71 32.5926C111.71 33.6725 111.95 34.5125 112.43 35.2324C112.91 36.0723 113.75 36.5523 114.71 36.5523C115.67 36.5523 116.39 36.0723 116.99 35.2324C117.47 34.5125 117.71 33.5525 117.71 32.5926Z" fill="white"/>
<path d="M128.389 29.1129C128.149 29.1129 127.909 28.9929 127.549 28.9929C126.709 28.9929 125.989 29.3529 125.509 29.9528C125.149 30.5528 124.909 31.2727 124.909 32.1127V37.9921H122.39V30.3128C122.39 28.9929 122.39 27.913 122.27 26.8331H124.429L124.549 28.9929H124.669C124.909 28.273 125.389 27.673 125.869 27.1931C126.469 26.8331 127.069 26.5931 127.669 26.5931C127.909 26.5931 128.149 26.5931 128.269 26.5931V29.1129H128.389Z" fill="white"/>
<path d="M139.428 31.9927C139.428 32.4726 139.428 32.8326 139.308 33.0726H131.869C131.869 34.1525 132.229 34.9924 132.948 35.5924C133.548 36.0723 134.388 36.4323 135.348 36.4323C136.428 36.4323 137.508 36.3123 138.348 35.9523L138.708 37.6322C137.628 38.1121 136.428 38.3521 134.988 38.3521C133.308 38.3521 131.869 37.8722 130.909 36.7923C129.949 35.8323 129.469 34.3925 129.469 32.7126C129.469 31.0328 129.949 29.5929 130.789 28.513C131.749 27.3131 133.068 26.7131 134.748 26.7131C136.308 26.7131 137.628 27.3131 138.348 28.513C139.188 29.4729 139.428 30.6728 139.428 31.9927ZM137.148 31.3927C137.148 30.6728 137.028 30.0728 136.668 29.4729C136.188 28.753 135.588 28.393 134.748 28.393C133.908 28.393 133.308 28.753 132.828 29.3529C132.468 29.8329 132.229 30.5528 132.109 31.2727H137.148V31.3927Z" fill="white"/>
<path d="M54.4753 13.1544C54.4753 14.4743 54.1153 15.5542 53.2754 16.2741C52.5555 16.874 51.4756 17.234 50.0357 17.234C49.3157 17.234 48.7158 17.234 48.2358 17.114V9.67468C48.8358 9.55469 49.5557 9.55469 50.3956 9.55469C51.7155 9.55469 52.6754 9.79467 53.3954 10.3946C53.9953 10.9946 54.4753 11.9545 54.4753 13.1544ZM53.1554 13.1544C53.1554 12.3144 52.9154 11.5945 52.4355 11.1146C51.9555 10.6346 51.2356 10.3946 50.3956 10.3946C50.0357 10.3946 49.6757 10.3946 49.4357 10.5146V16.1541C49.5557 16.1541 49.9157 16.1541 50.2757 16.1541C51.2356 16.1541 51.9555 15.9141 52.4355 15.4342C52.9154 14.9542 53.1554 14.1143 53.1554 13.1544Z" fill="white"/>
<path d="M61.1945 14.3542C61.1945 15.1942 60.9545 15.9141 60.4745 16.3941C59.9946 16.994 59.2746 17.234 58.4347 17.234C57.5948 17.234 56.9948 16.994 56.5149 16.3941C56.0349 15.9141 55.7949 15.1942 55.7949 14.3542C55.7949 13.5143 56.0349 12.7944 56.5149 12.3144C56.9948 11.7145 57.7148 11.4745 58.5547 11.4745C59.3946 11.4745 59.9946 11.7145 60.4745 12.3144C60.9545 12.7944 61.1945 13.5143 61.1945 14.3542ZM59.9946 14.3542C59.9946 13.8743 59.8746 13.3943 59.6346 13.0344C59.3946 12.5544 59.0346 12.4344 58.5547 12.4344C58.0747 12.4344 57.7148 12.6744 57.4748 13.0344C57.2348 13.3943 57.1148 13.8743 57.1148 14.3542C57.1148 14.8342 57.2348 15.3142 57.4748 15.6741C57.7148 16.1541 58.0747 16.2741 58.5547 16.2741C59.0346 16.2741 59.3946 16.0341 59.6346 15.5541C59.8746 15.3142 59.9946 14.8342 59.9946 14.3542Z" fill="white"/>
<path d="M70.4338 11.5945L68.754 17.114H67.6741L66.9541 14.7142C66.7142 14.1143 66.5942 13.5143 66.4742 12.9144C66.3542 13.5143 66.2342 14.1143 65.9942 14.7142L65.2743 17.114H64.1944L62.3945 11.5945H63.5944L64.1944 14.2343C64.3144 14.8342 64.4344 15.4341 64.5543 16.0341C64.6743 15.5541 64.7943 14.9542 65.0343 14.2343L65.7542 11.5945H66.7142L67.4341 14.1143C67.6741 14.7142 67.7941 15.3142 67.9141 15.9141C68.034 15.3142 68.154 14.7142 68.274 14.1143L68.9939 11.5945H70.4338Z" fill="white"/>
<path d="M76.6732 17.114H75.4733V13.9943C75.4733 13.0343 75.1134 12.5544 74.3934 12.5544C74.0335 12.5544 73.7935 12.6744 73.5535 12.9144C73.3135 13.1543 73.1935 13.5143 73.1935 13.8743V17.114H71.9937V13.1543C71.9937 12.6744 71.9937 12.1944 71.9937 11.5945H73.0736V12.4344C73.1935 12.1944 73.4335 11.9544 73.6735 11.7145C74.0335 11.4745 74.3934 11.3545 74.7534 11.3545C75.2334 11.3545 75.7133 11.4745 76.0733 11.8345C76.5532 12.1944 76.6732 12.7944 76.6732 13.6343V17.114Z" fill="white"/>
<path d="M80.0329 17.114H78.833V9.07471H80.0329V17.114Z" fill="white"/>
<path d="M87.2325 14.3542C87.2325 15.1942 86.9926 15.9141 86.5126 16.3941C86.0326 16.994 85.3127 17.234 84.4728 17.234C83.6328 17.234 83.0329 16.994 82.5529 16.3941C82.073 15.9141 81.833 15.1942 81.833 14.3542C81.833 13.5143 82.073 12.7944 82.5529 12.3144C83.0329 11.8345 83.7528 11.4745 84.5928 11.4745C85.4327 11.4745 86.0326 11.7145 86.5126 12.3144C86.9926 12.7944 87.2325 13.5143 87.2325 14.3542ZM86.0326 14.3542C86.0326 13.8743 85.9126 13.3943 85.6727 13.0344C85.4327 12.5544 85.0727 12.4344 84.5928 12.4344C84.1128 12.4344 83.7528 12.6744 83.5129 13.0344C83.2729 13.3943 83.1529 13.8743 83.1529 14.3542C83.1529 14.8342 83.2729 15.3142 83.5129 15.6741C83.7528 16.1541 84.1128 16.2741 84.5928 16.2741C85.0727 16.2741 85.4327 16.0341 85.6727 15.5541C85.9126 15.3142 86.0326 14.8342 86.0326 14.3542Z" fill="white"/>
<path d="M93.112 17.114H92.0321L91.9121 16.514C91.5521 16.994 90.9522 17.234 90.3522 17.234C89.8723 17.234 89.3923 17.114 89.1523 16.754C88.9123 16.3941 88.6724 16.0341 88.6724 15.6741C88.6724 14.9542 88.9123 14.4742 89.5123 14.1143C90.1122 13.7543 90.8322 13.6343 91.9121 13.6343V13.5143C91.9121 12.7944 91.5521 12.4344 90.8322 12.4344C90.2322 12.4344 89.8723 12.5544 89.3923 12.7944L89.1523 11.9544C89.6323 11.5945 90.2322 11.4745 91.0722 11.4745C92.512 11.4745 93.232 12.1944 93.232 13.7543V15.7941C93.112 16.3941 93.112 16.754 93.112 17.114ZM91.9121 15.1942V14.3542C90.5922 14.3542 89.8723 14.7142 89.8723 15.4341C89.8723 15.6741 89.9923 15.9141 90.1122 16.0341C90.2322 16.1541 90.4722 16.2741 90.7122 16.2741C90.9522 16.2741 91.1921 16.1541 91.4321 16.0341C91.6721 15.9141 91.7921 15.6741 91.9121 15.4341C91.9121 15.4341 91.9121 15.3142 91.9121 15.1942Z" fill="white"/>
<path d="M100.071 17.114H98.9913V16.2741C98.6313 16.994 98.0313 17.234 97.1914 17.234C96.4715 17.234 95.9915 16.994 95.5116 16.5141C95.0316 16.0341 94.9116 15.3142 94.9116 14.4742C94.9116 13.6343 95.1516 12.9144 95.6316 12.3144C96.1115 11.8345 96.7115 11.5945 97.3114 11.5945C98.0313 11.5945 98.5113 11.8345 98.8713 12.3144V9.1947H100.071V15.6741C100.071 16.1541 100.071 16.6341 100.071 17.114ZM98.8713 14.8342V13.8743C98.8713 13.7543 98.8713 13.6343 98.8713 13.5143C98.7513 13.2743 98.6313 13.0344 98.3913 12.7944C98.1513 12.5544 97.9114 12.5544 97.5514 12.5544C97.0714 12.5544 96.7115 12.7944 96.4715 13.1544C96.2315 13.5143 96.1115 13.9943 96.1115 14.5942C96.1115 15.1942 96.2315 15.5542 96.4715 15.9141C96.7115 16.2741 97.0714 16.5141 97.5514 16.5141C97.9114 16.5141 98.2713 16.3941 98.5113 16.0341C98.7513 15.5542 98.8713 15.1942 98.8713 14.8342Z" fill="white"/>
<path d="M110.51 14.3542C110.51 15.1942 110.27 15.9141 109.79 16.3941C109.31 16.994 108.591 17.234 107.751 17.234C106.911 17.234 106.311 16.994 105.831 16.3941C105.351 15.9141 105.111 15.1942 105.111 14.3542C105.111 13.5143 105.351 12.7944 105.831 12.3144C106.311 11.7145 107.031 11.4745 107.871 11.4745C108.711 11.4745 109.31 11.7145 109.79 12.3144C110.27 12.7944 110.51 13.5143 110.51 14.3542ZM109.19 14.3542C109.19 13.8743 109.07 13.3943 108.831 13.0344C108.591 12.5544 108.231 12.4344 107.751 12.4344C107.271 12.4344 106.911 12.6744 106.671 13.0344C106.431 13.3943 106.311 13.8743 106.311 14.3542C106.311 14.8342 106.431 15.3142 106.671 15.6741C106.911 16.1541 107.271 16.2741 107.751 16.2741C108.231 16.2741 108.591 16.0341 108.831 15.5541C109.07 15.3142 109.19 14.8342 109.19 14.3542Z" fill="white"/>
<path d="M117.11 17.114H115.91V13.9943C115.91 13.0343 115.55 12.5544 114.83 12.5544C114.47 12.5544 114.23 12.6744 113.99 12.9144C113.75 13.1543 113.63 13.5143 113.63 13.8743V17.114H112.43V13.1543C112.43 12.6744 112.43 12.1944 112.43 11.5945H113.51V12.4344C113.63 12.1944 113.87 11.9544 114.11 11.7145C114.47 11.4745 114.83 11.3545 115.19 11.3545C115.67 11.3545 116.15 11.4745 116.51 11.8345C116.99 12.1944 117.11 12.7944 117.11 13.6343V17.114Z" fill="white"/>
<path d="M125.269 12.5543H123.949V15.1941C123.949 15.914 124.189 16.154 124.669 16.154C124.909 16.154 125.029 16.154 125.269 16.154V17.1139C125.029 17.2339 124.669 17.2339 124.309 17.2339C123.829 17.2339 123.469 17.1139 123.229 16.754C122.989 16.514 122.869 15.914 122.869 15.3141V12.5543H122.029V11.5944H122.869V10.6345L124.069 10.2745V11.5944H125.389V12.5543H125.269Z" fill="white"/>
<path d="M131.748 17.114H130.549V13.9943C130.549 13.0344 130.189 12.5544 129.469 12.5544C128.869 12.5544 128.509 12.7944 128.269 13.3943C128.269 13.5143 128.269 13.6343 128.269 13.8743V17.114H127.069V9.07471H128.269V12.4344C128.629 11.8345 129.229 11.4745 129.949 11.4745C130.429 11.4745 130.909 11.5945 131.148 11.9545C131.508 12.3144 131.748 13.0344 131.748 13.7543V17.114Z" fill="white"/>
<path d="M138.348 14.1143C138.348 14.3542 138.348 14.4742 138.348 14.7142H134.748C134.748 15.3142 134.988 15.6741 135.228 15.9141C135.588 16.1541 135.948 16.2741 136.428 16.2741C137.028 16.2741 137.508 16.1541 137.868 16.0341L138.108 16.874C137.628 17.114 137.028 17.234 136.308 17.234C135.468 17.234 134.748 16.994 134.268 16.5141C133.788 16.0341 133.548 15.3142 133.548 14.4742C133.548 13.6343 133.788 12.9144 134.268 12.4344C134.748 11.8345 135.348 11.5945 136.188 11.5945C137.028 11.5945 137.628 11.8345 137.988 12.4344C138.228 12.7944 138.348 13.3943 138.348 14.1143ZM137.268 13.7543C137.268 13.3943 137.148 13.0344 137.028 12.7944C136.788 12.4344 136.548 12.3144 136.068 12.3144C135.708 12.3144 135.348 12.4344 135.108 12.7944C134.868 13.0344 134.748 13.3943 134.748 13.7543H137.268Z" fill="white"/>
</svg>
