<svg width="35" height="63" viewBox="0 0 35 63" fill="none" xmlns="http://www.w3.org/2000/svg">
<g id="Group 78">
<path id="Vector" d="M27.2224 5.83328C26.9984 5.83191 26.7771 5.8827 26.5761 5.98162C26.375 6.08055 26.1998 6.22489 26.0642 6.40324C25.5214 7.13133 24.8161 7.72262 24.0044 8.13003C23.1928 8.53744 22.2972 8.74971 21.3891 8.74995H13.6113C12.7031 8.74971 11.8075 8.53744 10.9959 8.13003C10.1842 7.72262 9.47892 7.13133 8.9361 6.40324C8.80051 6.22489 8.62528 6.08055 8.42427 5.98162C8.22325 5.8827 8.00197 5.83191 7.77794 5.83328C7.26224 5.83328 6.76767 6.03814 6.40301 6.40279C6.03836 6.76745 5.8335 7.26202 5.8335 7.77772V54.4444C5.8335 54.9601 6.03836 55.4547 6.40301 55.8193C6.76767 56.184 7.26224 56.3888 7.77794 56.3888H27.2224C27.7381 56.3888 28.2327 56.184 28.5973 55.8193C28.962 55.4547 29.1668 54.9601 29.1668 54.4444V7.77772C29.1668 7.26202 28.962 6.76745 28.5973 6.40279C28.2327 6.03814 27.7381 5.83328 27.2224 5.83328Z" fill="white"/>
<path id="Vector_2" d="M27.2222 0H7.77778C5.71498 0 3.73667 0.819442 2.27806 2.27806C0.819442 3.73667 0 5.71498 0 7.77778V54.4444C0 56.5072 0.819442 58.4855 2.27806 59.9442C3.73667 61.4028 5.71498 62.2222 7.77778 62.2222H27.2222C29.285 62.2222 31.2633 61.4028 32.7219 59.9442C34.1806 58.4855 35 56.5072 35 54.4444V7.77778C35 5.71498 34.1806 3.73667 32.7219 2.27806C31.2633 0.819442 29.285 0 27.2222 0ZM31.1111 54.4444C31.1111 55.4758 30.7014 56.465 29.9721 57.1943C29.2428 57.9236 28.2536 58.3333 27.2222 58.3333H7.77778C6.74638 58.3333 5.75723 57.9236 5.02792 57.1943C4.29861 56.465 3.88889 55.4758 3.88889 54.4444V7.77778C3.88889 6.74638 4.29861 5.75723 5.02792 5.02792C5.75723 4.29861 6.74638 3.88889 7.77778 3.88889H9.15712C9.34516 3.8882 9.52929 3.94247 9.6869 4.04503C9.84451 4.14758 9.96873 4.29395 10.0443 4.46615C10.3462 5.16121 10.8447 5.75291 11.4783 6.16852C12.112 6.58413 12.8533 6.80555 13.6111 6.80556H21.3889C22.1467 6.80555 22.888 6.58413 23.5217 6.16852C24.1553 5.75291 24.6538 5.16121 24.9557 4.46615C25.0313 4.29395 25.1555 4.14758 25.3131 4.04503C25.4707 3.94247 25.6548 3.8882 25.8429 3.88889H27.2222C28.2536 3.88889 29.2428 4.29861 29.9721 5.02792C30.7014 5.75723 31.1111 6.74638 31.1111 7.77778V54.4444Z" fill="white"/>
</g>
</svg>
