<svg width="45" height="45" viewBox="0 0 45 45" fill="none" xmlns="http://www.w3.org/2000/svg">
<path id="Vector" d="M38.3545 6.64547C36.2762 4.54658 33.8036 2.87902 31.0789 1.73859C28.3541 0.598159 25.4309 0.00733789 22.4771 6.79191e-05C19.5234 -0.00720205 16.5973 0.569222 13.8669 1.69623C11.1366 2.82323 8.65588 4.4786 6.56724 6.56724C4.4786 8.65588 2.82323 11.1366 1.69623 13.8669C0.569222 16.5973 -0.00720205 19.5234 6.79191e-05 22.4771C0.00733789 25.4309 0.598159 28.3541 1.73859 31.0789C2.87902 33.8036 4.54658 36.2762 6.64547 38.3545C8.72381 40.4534 11.1964 42.121 13.9211 43.2614C16.6459 44.4018 19.5691 44.9927 22.5229 44.9999C25.4766 45.0072 28.4027 44.4308 31.1331 43.3038C33.8634 42.1768 36.3441 40.5214 38.4328 38.4328C40.5214 36.3441 42.1768 33.8634 43.3038 31.1331C44.4308 28.4027 45.0072 25.4766 44.9999 22.5229C44.9927 19.5691 44.4018 16.6459 43.2614 13.9211C42.121 11.1964 40.4534 8.72381 38.3545 6.64547ZM15.2929 17.6953C15.7681 17.6953 16.2326 17.8362 16.6276 18.1002C17.0227 18.3641 17.3306 18.7393 17.5124 19.1783C17.6943 19.6173 17.7418 20.1003 17.6491 20.5663C17.5564 21.0323 17.3276 21.4604 16.9917 21.7964C16.6557 22.1323 16.2276 22.3611 15.7616 22.4538C15.2956 22.5465 14.8126 22.499 14.3736 22.3171C13.9346 22.1353 13.5594 21.8274 13.2955 21.4323C13.0315 21.0373 12.8906 20.5728 12.8906 20.0976C12.8898 19.7819 12.9514 19.4692 13.0718 19.1774C13.1923 18.8855 13.3692 18.6204 13.5925 18.3972C13.8157 18.1739 14.0808 17.997 14.3727 17.8766C14.6645 17.7561 14.9772 17.6945 15.2929 17.6953ZM32.0764 28.3227C30.8752 32.3567 27.0515 35.3125 22.505 35.3125C17.9586 35.3125 14.1348 32.3567 12.9236 28.3227C12.8898 28.2026 12.8844 28.0762 12.9081 27.9536C12.9317 27.8311 12.9837 27.7158 13.0598 27.6169C13.136 27.518 13.2342 27.4382 13.3466 27.384C13.4591 27.3298 13.5826 27.3027 13.7074 27.3047H31.2936C31.4183 27.3028 31.5417 27.3301 31.6541 27.3844C31.7664 27.4387 31.8644 27.5184 31.9405 27.6173C32.0165 27.7161 32.0684 27.8314 32.092 27.9539C32.1156 28.0764 32.1102 28.2027 32.0764 28.3227ZM29.7071 22.5C29.2319 22.5 28.7674 22.3591 28.3724 22.0951C27.9773 21.8312 27.6694 21.456 27.4876 21.017C27.3057 20.578 27.2582 20.095 27.3509 19.629C27.4436 19.163 27.6724 18.7349 28.0083 18.3989C28.3443 18.063 28.7724 17.8342 29.2384 17.7415C29.7044 17.6488 30.1874 17.6963 30.6264 17.8782C31.0654 18.06 31.4406 18.3679 31.7045 18.763C31.9685 19.158 32.1094 19.6225 32.1094 20.0976C32.1102 20.4134 32.0486 20.7261 31.9282 21.0179C31.8077 21.3097 31.6308 21.5749 31.4075 21.7981C31.1843 22.0214 30.9192 22.1983 30.6273 22.3187C30.3355 22.4392 30.0228 22.5008 29.7071 22.5Z" fill="white"/>
</svg>
