<svg width="61" height="42" viewBox="0 0 61 42" fill="none" xmlns="http://www.w3.org/2000/svg">
<path id="Vector" d="M50.568 17.5697C50.211 17.4882 49.8849 17.3055 49.6289 17.0433C49.3728 16.7811 49.1975 16.4507 49.1241 16.0914C48.2091 11.7148 46.2111 7.95987 43.2647 5.11415C39.8354 1.81246 35.2569 -0.0218211 30.5 0.000195934C26.2705 0.000195934 22.3698 1.39502 19.2198 4.03313C17.0687 5.85271 15.3577 8.1373 14.2159 10.7149C14.0927 10.9914 13.9056 11.2347 13.6701 11.4245C13.4345 11.6143 13.1573 11.7453 12.8612 11.8067C9.64443 12.4772 6.77672 13.8756 4.61908 15.848C1.59529 18.5994 0 22.3627 0 26.7273C0 31.0228 1.71324 34.9459 4.824 37.775C7.82039 40.5002 11.8616 42 16.2031 42H47.1797C51.0363 42 54.3555 40.9774 56.7812 39.0445C59.5417 36.8431 61 33.575 61 29.591C61 22.7219 55.9961 18.7832 50.568 17.5697ZM39.2259 16.503L26.3825 31.7757C26.2066 31.9848 25.988 32.1536 25.7413 32.2707C25.4947 32.3878 25.2258 32.4505 24.9528 32.4546H24.9206C24.6538 32.4546 24.39 32.3986 24.1462 32.29C23.9024 32.1815 23.684 32.023 23.5053 31.8246L18.0367 25.7549C17.3493 24.9925 17.3433 23.8064 18.0724 23.0822C18.2555 22.9 18.4736 22.7569 18.7135 22.6616C18.9534 22.5663 19.2102 22.5207 19.4682 22.5278C19.7262 22.5348 19.9801 22.5942 20.2145 22.7024C20.4488 22.8107 20.6589 22.9654 20.8317 23.1574L24.8706 27.6413L36.3081 14.0391C36.4694 13.8473 36.6669 13.6892 36.8892 13.5739C37.1115 13.4585 37.3543 13.3881 37.6038 13.3667C37.8533 13.3453 38.1045 13.3734 38.3432 13.4492C38.5818 13.5251 38.8032 13.6473 38.9947 13.8088C39.1862 13.9704 39.3441 14.1681 39.4593 14.3908C39.5745 14.6134 39.6448 14.8566 39.6661 15.1064C39.6875 15.3563 39.6595 15.6079 39.5837 15.8469C39.508 16.0859 39.386 16.3076 39.2247 16.4994L39.2259 16.503Z" fill="white"/>
</svg>
