<svg width="154" height="49" viewBox="0 0 154 49" fill="none" xmlns="http://www.w3.org/2000/svg">
<path d="M149.201 48.7912H5.21316C2.57339 48.7912 0.413574 46.6314 0.413574 43.9916V5.59499C0.413574 2.95522 2.57339 0.79541 5.21316 0.79541H149.201C151.84 0.79541 154 2.95522 154 5.59499V43.9916C154 46.6314 151.84 48.7912 149.201 48.7912Z" fill="black"/>
<path fill-rule="evenodd" clip-rule="evenodd" d="M12.1724 24.3133V11.7144C12.1724 10.9945 12.7723 10.3945 13.3723 10.3945C13.9722 10.3945 14.2122 10.5145 14.5722 10.7545L37.7301 23.4734C38.2101 23.7134 38.4501 24.0733 38.4501 24.4333C38.4501 24.7933 38.2101 25.1532 37.7301 25.3932L14.5722 38.1121C14.3322 38.2321 13.9722 38.4721 13.3723 38.4721C12.7723 38.4721 12.1724 37.8721 12.1724 37.1522V24.3133Z" fill="url(#paint0_linear_843_919)"/>
<path fill-rule="evenodd" clip-rule="evenodd" d="M27.1711 24.4333L13.1323 10.3945C13.2523 10.3945 13.2523 10.3945 13.3723 10.3945C13.9722 10.3945 14.2122 10.5145 14.5722 10.7545L31.6107 20.1137L27.1711 24.4333Z" fill="url(#paint1_linear_843_919)"/>
<path fill-rule="evenodd" clip-rule="evenodd" d="M31.491 28.633L27.1714 24.3134L31.611 19.8738L37.7305 23.2335C38.2104 23.4735 38.4504 23.8334 38.4504 24.1934C38.4504 24.5534 38.2104 24.9133 37.7305 25.1533L31.491 28.633Z" fill="url(#paint2_linear_843_919)"/>
<path fill-rule="evenodd" clip-rule="evenodd" d="M13.2524 38.2321L27.1712 24.3134L31.4908 28.633L14.5723 37.8722C14.2124 38.1122 13.9724 38.2321 13.2524 38.2321C13.3724 38.2321 13.3724 38.2321 13.2524 38.2321Z" fill="url(#paint3_linear_843_919)"/>
<path fill-rule="evenodd" clip-rule="evenodd" d="M85.7261 41.4719C85.1262 40.9919 84.6462 40.152 84.4062 39.672L86.3261 38.8321C86.446 39.0721 86.686 39.4321 86.926 39.792C87.406 40.272 88.1259 40.7519 88.8458 40.7519C89.5658 40.7519 90.4057 40.392 90.8856 39.792C91.2456 39.1921 91.4856 38.5921 91.4856 37.7522V37.0323C90.0457 38.8321 87.046 38.5921 85.3661 36.6723C83.5663 34.7525 83.5663 31.5128 85.3661 29.5929C87.166 27.7931 89.8057 27.5531 91.3656 29.233V28.393H93.4054V37.3922C93.4054 39.672 92.5655 40.9919 91.4856 41.8319C90.7657 42.4318 89.6858 42.6718 88.7258 42.6718C87.6459 42.5518 86.566 42.1918 85.7261 41.4719ZM136.002 41.9518L138.042 37.1523L134.442 28.873H136.482L139.001 34.7525L141.521 28.873H143.561L138.042 41.9518H136.002ZM126.283 37.3922C125.683 36.7923 125.443 35.9524 125.443 35.1124C125.443 34.3925 125.683 33.6726 126.163 33.1926C127.002 32.3527 128.202 31.9927 129.522 31.9927C130.362 31.9927 131.082 32.1127 131.682 32.4727C131.682 31.0328 130.482 30.4329 129.522 30.4329C128.682 30.4329 127.842 30.9128 127.482 31.7527L125.683 31.0328C126.043 30.1929 127.002 28.633 129.402 28.633C130.602 28.633 131.802 28.993 132.522 29.8329C133.242 30.6728 133.482 31.6327 133.482 32.9526V37.9922H131.442V37.1523C131.202 37.5122 130.722 37.7522 130.362 37.9922C129.882 38.2322 129.282 38.3522 128.682 38.3522C127.962 38.2322 126.882 37.9922 126.283 37.3922ZM62.3281 33.0726C62.3281 30.6728 64.128 28.0331 67.3677 28.0331C70.4874 28.0331 72.4073 30.6728 72.4073 33.0726C72.4073 35.4724 70.6074 38.1122 67.3677 38.1122C64.128 38.1122 62.3281 35.4724 62.3281 33.0726ZM73.1272 33.0726C73.1272 30.6728 74.927 28.0331 78.1668 28.0331C81.2865 28.0331 83.2063 30.6728 83.2063 33.0726C83.2063 35.4724 81.4065 38.1122 78.1668 38.1122C75.047 38.1122 73.1272 35.4724 73.1272 33.0726ZM48.7693 35.7124C45.7696 32.7127 45.8896 27.7931 48.8893 24.6734C50.4492 23.1135 52.369 22.3936 54.4088 22.3936C56.3287 22.3936 58.2485 23.1135 59.6884 24.5534L58.2485 26.1132C56.0887 23.9534 52.609 24.0734 50.5692 26.2332C48.4094 28.513 48.4094 31.9927 50.5692 34.2725C52.729 36.5523 56.3287 36.6723 58.4885 34.3925C59.2084 33.6726 59.4484 32.7127 59.5684 31.7527H54.5288V29.5929H61.6082C61.7282 30.0729 61.7282 30.6728 61.7282 31.2728C61.7282 33.0726 61.0083 34.8725 59.8084 36.0724C58.4885 37.3922 56.5686 38.1122 54.6488 38.1122C52.489 37.9922 50.3292 37.2723 48.7693 35.7124ZM99.5249 36.5523C97.7251 34.6325 97.7251 31.3928 99.5249 29.3529C101.325 27.4331 104.324 27.4331 106.004 29.3529C106.604 29.9529 106.964 30.7928 107.324 31.6327L100.725 34.3925C101.085 35.2324 101.925 35.9524 103.125 35.9524C104.204 35.9524 104.924 35.5924 105.644 34.5125L107.444 35.7124C107.204 35.9524 106.964 36.1923 106.844 36.4323C104.804 38.4722 101.325 38.4721 99.5249 36.5523ZM112.004 37.9922V24.6734H116.323C118.843 24.6734 120.883 26.4732 120.883 28.633C120.883 30.7928 119.083 32.5927 116.803 32.5927H114.164V37.8722H112.004V37.9922ZM122.083 37.9922V24.6734H124.123V37.9922H122.083ZM94.9653 37.7522V22.8735H97.1251V37.7522H94.9653ZM131.562 34.0325C131.082 33.6726 130.362 33.5526 129.642 33.5526C128.202 33.5526 127.362 34.2725 127.362 35.1124C127.362 35.9524 128.202 36.4323 129.042 36.4323C130.242 36.4323 131.562 35.4724 131.562 34.0325ZM70.1275 33.0726C70.1275 31.6327 69.1675 30.0729 67.3677 30.0729C65.5679 30.0729 64.6079 31.6327 64.6079 33.0726C64.6079 34.5125 65.5679 36.0724 67.3677 36.0724C69.0476 36.0724 70.1275 34.5125 70.1275 33.0726ZM80.9265 33.0726C80.9265 31.6327 79.9666 30.0729 78.1668 30.0729C76.3669 30.0729 75.407 31.6327 75.407 33.0726C75.407 34.5125 76.3669 36.0724 78.1668 36.0724C79.9666 36.0724 80.9265 34.5125 80.9265 33.0726ZM91.6056 33.9125C91.6056 33.7926 91.6056 33.6726 91.7256 33.5526C91.7256 33.4326 91.7256 33.1926 91.7256 33.0726C91.7256 32.9526 91.7256 32.7127 91.7256 32.5927V32.4727C91.7256 32.3527 91.6056 32.1127 91.6056 31.9927C91.2456 30.7928 90.1657 29.9529 89.0858 29.9529C87.6459 29.9529 86.4461 31.3928 86.4461 32.9526C86.4461 34.6325 87.6459 35.9524 89.2058 35.9524C90.1657 36.0724 91.1256 35.2324 91.6056 33.9125ZM100.365 32.8326L104.804 30.9128C104.324 30.0729 103.605 29.8329 103.005 29.8329C101.205 29.9529 100.125 31.8727 100.365 32.8326ZM118.723 28.753C118.723 27.5531 117.763 26.7132 116.443 26.7132H114.044V30.9128H116.563C117.763 30.9128 118.723 29.9529 118.723 28.753Z" fill="white"/>
<path fill-rule="evenodd" clip-rule="evenodd" d="M137.563 39.5528H137.442V39.432H137.563H137.442V39.5528H137.563Z" fill="white"/>
<path fill-rule="evenodd" clip-rule="evenodd" d="M137.802 39.5528C137.802 39.432 137.802 39.432 137.802 39.5528C137.681 39.432 137.681 39.432 137.802 39.5528C137.681 39.5528 137.681 39.5528 137.802 39.5528ZM137.802 39.432C137.802 39.5528 137.802 39.5528 137.802 39.432C137.681 39.5528 137.802 39.5528 137.802 39.432C137.802 39.432 137.681 39.432 137.802 39.432Z" fill="white"/>
<path fill-rule="evenodd" clip-rule="evenodd" d="M137.923 39.432H137.802H137.923V39.5528V39.432Z" fill="white"/>
<path d="M47.0894 12.9144C47.0894 10.7546 48.6492 9.43469 50.5691 9.43469C51.8889 9.43469 52.7289 10.0346 53.3288 10.8746L52.3689 11.4745C52.0089 10.9946 51.409 10.6346 50.5691 10.6346C49.2492 10.6346 48.2893 11.5945 48.2893 13.0344C48.2893 14.4742 49.2492 15.4342 50.5691 15.4342C51.289 15.4342 51.889 15.0742 52.1289 14.8342V13.7543H50.2091V12.6744H53.4488V15.1942C52.8489 15.9141 51.8889 16.3941 50.689 16.3941C48.6492 16.3941 47.0894 14.9542 47.0894 12.9144Z" fill="white"/>
<path d="M54.8887 16.2741V9.55469H59.4483V10.6346H55.9686V12.3144H59.3283V13.3944H55.9686V15.3142H59.4483V16.3941L54.8887 16.2741Z" fill="white"/>
<path d="M62.8079 16.2741V10.6346H60.7681V9.55469H66.0476V10.6346H64.0078V16.2741H62.8079Z" fill="white"/>
<path d="M70.1274 16.2741V9.55469H71.3273V16.2741H70.1274Z" fill="white"/>
<path d="M74.5672 16.2741V10.6346H72.5273V9.55469H77.8069V10.6346H75.7671V16.2741H74.5672Z" fill="white"/>
<path d="M81.6465 12.9144C81.6465 10.8746 83.0864 9.43469 85.1262 9.43469C87.166 9.43469 88.6059 10.8746 88.6059 12.9144C88.6059 14.9542 87.166 16.3941 85.1262 16.3941C83.0864 16.3941 81.6465 14.8342 81.6465 12.9144ZM87.286 12.9144C87.286 11.4745 86.4461 10.5146 85.0062 10.5146C83.6863 10.5146 82.7264 11.5945 82.7264 12.9144C82.7264 14.3543 83.5663 15.3142 85.0062 15.3142C86.4461 15.3142 87.286 14.2343 87.286 12.9144Z" fill="white"/>
<path d="M94.6054 16.2741L91.1257 11.4745V16.2741H89.9258V9.55469H91.1257L94.6054 14.2343V9.55469H95.8053V16.2741H94.6054Z" fill="white"/>
<defs>
<linearGradient id="paint0_linear_843_919" x1="19.9326" y1="8.683" x2="26.6498" y2="36.2697" gradientUnits="userSpaceOnUse">
<stop stop-color="#006884"/>
<stop offset="1" stop-color="#8AD1D0"/>
</linearGradient>
<linearGradient id="paint1_linear_843_919" x1="11.7413" y1="12.6069" x2="30.0469" y2="22.503" gradientUnits="userSpaceOnUse">
<stop stop-color="#24BBB6"/>
<stop offset="1" stop-color="#DBE692"/>
</linearGradient>
<linearGradient id="paint2_linear_843_919" x1="32.8042" y1="29.1371" x2="32.8042" y2="19.5998" gradientUnits="userSpaceOnUse">
<stop stop-color="#FCC072"/>
<stop offset="1" stop-color="#F58A5B"/>
</linearGradient>
<linearGradient id="paint3_linear_843_919" x1="15.2859" y1="40.7148" x2="29.7467" y2="25.9979" gradientUnits="userSpaceOnUse">
<stop stop-color="#712B8F"/>
<stop offset="1" stop-color="#EA1D27"/>
</linearGradient>
</defs>
</svg>
