<svg width="57" height="48" viewBox="0 0 57 48" fill="none" xmlns="http://www.w3.org/2000/svg">
<path id="Vector" d="M49.875 0.335938H7.125C5.23595 0.338056 3.42486 1.12581 2.0891 2.52635C0.753337 3.92688 0.00202073 5.82581 0 7.80647V39.823C0.00202073 41.8037 0.753337 43.7026 2.0891 45.1031C3.42486 46.5037 5.23595 47.2914 7.125 47.2935H49.875C51.764 47.2914 53.5751 46.5037 54.9109 45.1031C56.2467 43.7026 56.998 41.8037 57 39.823V7.80647C56.998 5.82581 56.2467 3.92688 54.9109 2.52635C53.5751 1.12581 51.764 0.338056 49.875 0.335938ZM48.0709 12.693L29.7494 27.6341C29.3922 27.9253 28.9525 28.0833 28.5 28.0833C28.0475 28.0833 27.6078 27.9253 27.2506 27.6341L8.92915 12.693C8.71389 12.5226 8.53309 12.309 8.39724 12.0646C8.26139 11.8203 8.17322 11.5501 8.13783 11.2697C8.10245 10.9893 8.12056 10.7043 8.19112 10.4314C8.26168 10.1584 8.38328 9.90282 8.54885 9.67954C8.71443 9.45627 8.92067 9.26972 9.1556 9.13074C9.39053 8.99175 9.64946 8.90311 9.91734 8.86996C10.1852 8.83681 10.4567 8.85981 10.7161 8.93763C10.9754 9.01544 11.2174 9.14652 11.428 9.32325L28.5 23.2451L45.572 9.32325C45.9989 8.98524 46.5355 8.83699 47.0659 8.91057C47.5962 8.98414 48.0776 9.27363 48.4059 9.71642C48.7343 10.1592 48.8832 10.7197 48.8205 11.2767C48.7578 11.8338 48.4885 12.3425 48.0709 12.693Z" fill="white"/>
</svg>
