<svg width="51" height="55" viewBox="0 0 51 55" fill="none" xmlns="http://www.w3.org/2000/svg">
<path id="Vector" d="M40.8712 53.9277V53.9277C41.9528 53.9401 43.0242 53.6902 44.0048 53.1952L44.0077 53.1938C45.9344 52.2368 47.1 50.8315 48.2897 48.933C48.9525 47.8608 49.5217 46.7255 49.99 45.5413L49.9906 45.5398C50.0341 45.4308 50.0761 45.3305 50.1131 45.242L50.1308 45.1997C50.3816 44.5943 50.6901 43.8482 50.3491 42.8851L50.3491 42.885C50.1163 42.2269 49.632 41.6115 48.6268 40.5304L48.6267 40.5302C47.6395 39.4676 45.9942 38.1961 44.3165 37.0413C42.6457 35.8911 40.9787 34.8808 39.9727 34.3393C38.365 33.4742 37.5375 33.0407 36.582 33.0407H36.5751C35.498 33.0407 34.6667 33.604 33.4405 34.5774L33.4384 34.579C33.2884 34.6968 33.1442 34.8144 32.9996 34.9324C32.974 34.9532 32.9484 34.9741 32.9228 34.995C32.3474 35.4638 31.9253 35.7952 31.5595 35.9797C31.3651 36.0777 31.1714 36.143 30.9638 36.1661C30.7568 36.1891 30.5627 36.1673 30.3726 36.1239C30.3725 36.1239 30.3724 36.1239 30.3723 36.1239L30.4835 35.6364M40.8712 53.9277L17.5134 21.8372C17.7673 23.0971 19.6609 26.8476 22.7727 30.1607C25.8846 33.4738 29.2982 35.3667 30.4835 35.6364M40.8712 53.9277H40.8655C38.7707 53.9277 35.7398 53.1184 31.1016 50.3534M40.8712 53.9277L31.1016 50.3534M30.4835 35.6364C31.0961 35.7761 31.432 35.5647 32.607 34.6073C32.6322 34.5868 32.6576 34.5661 32.683 34.5454C32.8275 34.4275 32.9757 34.3066 33.1297 34.1857C34.3434 33.2223 35.3022 32.5407 36.5751 32.5407H36.582C37.6856 32.5407 38.6311 33.0495 40.1917 33.8894L40.2096 33.899C42.2592 35.0022 46.94 37.98 48.993 40.1899C49.9916 41.2639 50.5483 41.9491 50.8205 42.7182C51.2259 43.8633 50.8528 44.7636 50.6011 45.3709L50.5928 45.391C50.5866 45.4058 50.5803 45.4208 50.5739 45.436C50.5369 45.5246 50.4968 45.6204 50.455 45.7251M30.4835 35.6364L50.455 45.7251M50.455 45.7251C49.9757 46.9371 49.3929 48.0994 48.714 49.1974L50.455 45.7251ZM31.1016 50.3534C25.4471 46.9699 21.0889 43.857 15.4733 37.8809C10.0537 32.1018 7.42746 28.3761 3.73534 21.2074L3.73529 21.2073C-0.417541 13.1485 0.349942 9.0458 1.06845 7.40655L1.06872 7.40594C1.96914 5.34421 3.29261 4.1051 5.07189 2.83724C6.07709 2.13468 7.14037 1.53269 8.24822 1.0387L8.24823 1.03872L8.2531 1.03649C8.36963 0.983024 8.47769 0.932186 8.57363 0.88656L8.57548 0.885671C9.13609 0.616187 9.80774 0.306653 10.6707 0.65559L10.6722 0.656197C11.2777 0.898728 11.8523 1.40699 12.8706 2.48011L12.8709 2.48036C13.8684 3.53006 15.0705 5.2504 16.1616 7.02489C17.25 8.79479 18.205 10.5808 18.7142 11.7434C19.4264 13.3756 19.8362 14.3329 19.8372 15.3961C19.8371 16.6181 19.2689 17.5769 18.4734 18.7341L18.4731 18.7346C18.3324 18.9397 18.1924 19.1364 18.0538 19.3313L18.0377 19.3539C18.0376 19.3541 18.0376 19.3542 18.0375 19.3543L18.0374 19.3544L18.4448 19.6443L31.1016 50.3534Z" fill="white" stroke="white"/>
</svg>
