<svg width="1151" height="1111" viewBox="0 0 1151 1111" fill="none" xmlns="http://www.w3.org/2000/svg">
<path opacity="0.5" d="M387.338 298.041C383.619 328.121 350.407 604.216 343.064 667.301L78.1959 55.4662L168.442 -127.907C168.442 -127.907 325.035 99.25 348.942 133.575C372.849 167.899 392.702 252.649 387.338 298.041ZM468.651 163.943C476.738 160.189 851.074 -7.83062 926.391 -41.7618L179.189 -143.437C219.146 -87.0229 340.032 85.7549 372.064 130.41C409.816 184.581 459.509 168.04 468.651 163.943ZM501.242 244.115C545.585 265.685 750.372 364.918 794.849 385.535C844.566 408.321 882.778 394.587 895.597 382.252C909.605 368.622 1039.86 248.467 1054.56 233.476C1069.2 218.96 1084.41 178.793 1089.04 156.604C1093.27 137.274 1108.41 15.0484 1111.83 -16.5281L960.512 -37.1188C887.868 -4.28035 509.335 168.508 486.693 179.021C465.535 189.736 457.392 222.612 501.242 244.115ZM794.446 406.356C773.825 395.297 509.339 269.006 488.583 258.899C457.978 243.568 445.13 288.427 450.234 309.512C455.698 331.617 638.036 939.019 657.596 1004.31L882.573 722.752C876.817 681.187 857.251 533.362 853.084 505.608C848.529 473.431 815.068 417.416 794.446 406.356ZM404.362 327.545C403.519 337.14 362.084 653.868 356.359 698.24L526.448 1091.33C535.935 1113.5 567.089 1117.74 582.394 1098.46L644.109 1021.41C625.136 959.111 435.743 333.757 430.8 315.121C425.202 293.969 407.185 300.256 404.362 327.545ZM37.2655 -162.749C12.0456 -166.181 -6.96205 -142.065 2.4583 -119.421L68.7087 33.2991L158.42 -146.263L37.2655 -162.749ZM1381.83 20.2121L1129.63 -14.1057C1126.29 9.71397 1115.51 93.6936 1113.96 111.931C1112.43 133.571 1108.32 195.155 1160.31 183.781C1205.05 173.847 1320.75 142.984 1352.16 134.635L1403.53 70.2577C1418.77 51.4551 1407.05 23.6439 1381.83 20.2121ZM870.699 502.179C872.021 517.895 892.215 664.834 897.317 703.882L1039.82 525.192C1011.98 511.694 928.467 471.2 905.373 459.804C878.59 445.965 868.964 478.639 870.699 502.179ZM1044.8 267.103C989.173 318.763 941.041 363.676 912.102 390.324C884.354 415.677 910.093 440.542 929.859 450.514C951.042 461.164 1029.95 498.603 1052.55 509.931L1333.16 158.751C1297.66 167.514 1200.66 190.728 1178.62 196.953C1151.44 203.934 1100.44 215.443 1044.8 267.103Z" fill="url(#paint0_linear_843_988)" fill-opacity="0.59"/>
<defs>
<linearGradient id="paint0_linear_843_988" x1="709.549" y1="-71.2683" x2="514.95" y2="1360.7" gradientUnits="userSpaceOnUse">
<stop stop-color="white"/>
<stop offset="0.691417" stop-color="white" stop-opacity="0"/>
</linearGradient>
</defs>
</svg>
